<svg width="22" height="16" viewBox="0 0 22 16" fill="none" xmlns="http://www.w3.org/2000/svg">
<path d="M2 13H6.1C5.81667 12.7167 5.55433 12.4083 5.313 12.075C5.07167 11.7417 4.859 11.3833 4.675 11H2V13ZM11 13C12.3833 13 13.5627 12.5123 14.538 11.537C15.5133 10.5617 16.0007 9.38267 16 8C16 6.61667 15.5123 5.43733 14.537 4.462C13.5617 3.48667 12.3827 2.99933 11 3C9.61667 3 8.43733 3.48767 7.462 4.463C6.48667 5.43833 5.99933 6.61733 6 8C6 9.38333 6.48767 10.5627 7.463 11.538C8.43833 12.5133 9.61733 13.0007 11 13ZM17.325 5H20V3H15.9C16.1833 3.28333 16.446 3.59167 16.688 3.925C16.93 4.25833 17.1423 4.61667 17.325 5ZM0 16V8H2V9H4.075C4.04167 8.83333 4.02067 8.67067 4.012 8.512C4.00333 8.35333 3.99933 8.18267 4 8C4 6.05 4.67933 4.39567 6.038 3.037C7.39667 1.67833 9.05067 0.999333 11 1H20V0H22V8H20V7H17.925C17.9583 7.16667 17.9793 7.32933 17.988 7.488C17.9967 7.64667 18.0007 7.81733 18 8C18 9.95 17.3207 11.6043 15.962 12.963C14.6033 14.3217 12.9493 15.0007 11 15H2V16H0ZM11 11C10.45 11 9.979 10.804 9.587 10.412C9.195 10.02 8.99933 9.54933 9 9C9 8.61667 9.07933 8.23767 9.238 7.863C9.39667 7.48833 9.70067 6.95067 10.15 6.25L11 5L11.85 6.25C12.3 6.95 12.6043 7.48767 12.763 7.863C12.9217 8.23833 13.0007 8.61733 13 9C13 9.55 12.804 10.021 12.412 10.413C12.02 10.805 11.5493 11.0007 11 11Z" fill="url(#paint0_linear_1_102)"/>
<defs>
<linearGradient id="paint0_linear_1_102" x1="11" y1="0" x2="11" y2="16" gradientUnits="userSpaceOnUse">
<stop stop-color="#187EF5"/>
<stop offset="1" stop-color="#10AED1" stop-opacity="0.52"/>
</linearGradient>
</defs>
</svg>
